<svg width="350" height="140" viewBox="0 0 350 140" fill="none" xmlns="http://www.w3.org/2000/svg">
<path d="M0 140V40.8333H22.7116C28.6566 40.8333 33.8584 42.4163 38.3172 45.5822C42.7759 48.6549 46.2128 53.8228 48.628 61.0857C51.136 68.2555 52.39 78.0325 52.39 90.4167C52.39 102.801 51.136 112.624 48.628 119.887C46.2128 127.057 42.7759 132.225 38.3172 135.391C33.8584 138.464 28.6566 140 22.7116 140H0ZM15.8842 126.592H21.3183C25.777 126.592 29.3533 124.683 32.0471 120.865C34.8338 116.954 36.2271 110.064 36.2271 100.194V80.6397C36.2271 73.9354 35.5769 68.6745 34.2764 64.8568C33.0689 61.0391 31.3504 58.3388 29.121 56.7559C26.8917 55.0798 24.2908 54.2418 21.3183 54.2418H15.8842V126.592Z" fill="#F4F1EA"/>
<path d="M62.728 140V40.8333H107.594V54.2418H78.6122V82.8744H104.389V95.5845H78.6122V126.592H108.151V140H62.728Z" fill="#F4F1EA"/>
<path d="M118.108 140V40.8333H133.853L153.36 101.171H153.499V40.8333H167.154V140H153.36L131.902 74.4941H131.763V140H118.108Z" fill="#F4F1EA"/>
<path d="M193.681 140L174.871 40.8333H191.034L204.549 122.82L218.204 40.8333H233.392L214.582 140H193.681Z" fill="#F4F1EA"/>
<path d="M241.115 140V40.8333H285.981V54.2418H256.999V82.8744H282.776V95.5845H256.999V126.592H286.538V140H241.115Z" fill="#F4F1EA"/>
<path d="M296.495 140V40.8333H321.576C327.985 40.8333 333.14 42.0438 337.042 44.4648C341.036 46.7926 343.916 50.0051 345.681 54.1021C347.538 58.1991 348.467 62.8549 348.467 68.0692C348.467 74.0286 347.353 79.3826 345.123 84.1315C342.987 88.8803 339.318 92.2789 334.116 94.3275L350 140H332.583L318.65 96.8415H312.38V140H296.495ZM320.74 53.6831H312.38V84.1315H320.74C325.105 84.1315 328.171 83.0141 329.936 80.7793C331.701 78.4515 332.583 75.1925 332.583 71.0023V66.1138C332.583 62.2962 331.654 59.27 329.796 57.0352C328.032 54.8005 325.013 53.6831 320.74 53.6831Z" fill="#F4F1EA"/>
<path d="M58.3333 22.9201V0.349681H71.3662C74.5649 0.349681 77.2078 0.837117 79.2949 1.81199C81.4047 2.78686 82.9813 4.13261 84.0248 5.84923C85.0684 7.54466 85.5902 9.4838 85.5902 11.6667C85.5902 13.8283 85.0684 15.7569 84.0248 17.4523C82.9813 19.1477 81.4047 20.4829 79.2949 21.4578C77.2078 22.4326 74.5649 22.9201 71.3662 22.9201H58.3333ZM65.139 18.2153H70.8898C73.5441 18.2153 75.5064 17.6642 76.7768 16.5622C78.0699 15.4602 78.7164 13.9555 78.7164 12.0481V11.2216C78.7164 9.27187 78.0699 7.75658 76.7768 6.67575C75.5064 5.59491 73.5441 5.05449 70.8898 5.05449H65.139V18.2153Z" fill="#F4F1EA"/>
<path d="M84.6376 22.9201L96.4115 0.349681H103.626L115.399 22.9201H108.151L105.497 17.5795H94.0975L91.4774 22.9201H84.6376ZM96.2754 13.2561H103.387L99.8484 6.13533L96.2754 13.2561Z" fill="#F4F1EA"/>
<path d="M117.318 22.9201V0.349681H124.294L135.864 13.0018H135.898V0.349681H142.227V22.9201H137.021L123.682 8.36058H123.648V22.9201H117.318Z" fill="#F4F1EA"/>
<path d="M160.216 23.3333C157.313 23.3333 154.727 22.8565 152.458 21.9028C150.212 20.9279 148.443 19.5716 147.15 17.8338C145.879 16.0748 145.244 14.0085 145.244 11.6349C145.244 9.26128 145.879 7.20557 147.15 5.46776C148.443 3.72994 150.212 2.38419 152.458 1.43052C154.727 0.476839 157.313 0 160.216 0C162.757 0 164.992 0.339086 166.92 1.01726C168.848 1.69543 170.436 2.62791 171.684 3.81471C172.932 4.98032 173.771 6.29428 174.202 7.75658L168.111 9.12352C167.635 8.02149 167 7.16318 166.206 6.54859C165.412 5.91281 164.504 5.46776 163.483 5.21344C162.485 4.95913 161.43 4.83197 160.319 4.83197C158.821 4.83197 157.449 5.07569 156.201 5.56312C154.953 6.02937 153.955 6.73933 153.207 7.69301C152.481 8.64668 152.118 9.85468 152.118 11.317V11.9528C152.118 13.3939 152.481 14.6019 153.207 15.5767C153.955 16.5304 154.953 17.251 156.201 17.7384C157.449 18.2047 158.821 18.4378 160.319 18.4378C161.43 18.4378 162.485 18.3106 163.483 18.0563C164.504 17.802 165.412 17.3675 166.206 16.753C167 16.1172 167.635 15.2483 168.111 14.1462L174.202 15.5132C173.771 16.9755 172.932 18.3 171.684 19.4868C170.436 20.6524 168.848 21.5849 166.92 22.2843C164.992 22.9836 162.757 23.3333 160.216 23.3333Z" fill="#F4F1EA"/>
<path d="M176.868 22.9201V0.349681H183.674V22.9201H176.868Z" fill="#F4F1EA"/>
<path d="M187.635 22.9201V0.349681H194.611L206.18 13.0018H206.215V0.349681H212.544V22.9201H207.337L193.998 8.36058H193.964V22.9201H187.635Z" fill="#F4F1EA"/>
<path d="M230.091 23.3333C227.255 23.3333 224.737 22.8565 222.536 21.9028C220.359 20.9279 218.646 19.5716 217.398 17.8338C216.173 16.0748 215.561 14.0085 215.561 11.6349C215.561 9.26128 216.207 7.20557 217.5 5.46776C218.793 3.72994 220.574 2.38419 222.843 1.43052C225.111 0.476839 227.709 0 230.635 0C233.199 0 235.422 0.317892 237.305 0.953677C239.21 1.56827 240.753 2.42658 241.933 3.52861C243.135 4.60945 243.952 5.84923 244.383 7.24795L238.292 8.61489C237.838 7.57644 237.225 6.79231 236.454 6.26249C235.706 5.71147 234.843 5.3406 233.868 5.14986C232.892 4.93793 231.849 4.83197 230.737 4.83197C229.195 4.83197 227.788 5.07569 226.518 5.56312C225.27 6.02937 224.272 6.73933 223.523 7.69301C222.797 8.64668 222.434 9.85468 222.434 11.317V11.9528C222.434 13.3939 222.809 14.6125 223.557 15.6085C224.329 16.5834 225.384 17.3252 226.722 17.8338C228.083 18.3212 229.626 18.5649 231.35 18.5649C232.756 18.5649 234.004 18.4166 235.093 18.1199C236.182 17.802 237.033 17.3569 237.645 16.7847C238.28 16.2125 238.598 15.5132 238.598 14.6866V14.4641H229.887V10.0772H244.859V22.9201H239.449L239.176 20.6948C238.019 21.6061 236.647 22.2737 235.059 22.6975C233.471 23.1214 231.815 23.3333 230.091 23.3333Z" fill="#F4F1EA"/>
<path d="M255.991 22.9201V0.349681H262.797V22.9201H255.991Z" fill="#F4F1EA"/>
<path d="M266.758 22.9201V0.349681H273.734L285.303 13.0018H285.337V0.349681H291.667V22.9201H286.46L273.121 8.36058H273.087V22.9201H266.758Z" fill="#F4F1EA"/>
</svg>
